<svg width="192" height="48" viewBox="0 0 192 48" fill="none" xmlns="http://www.w3.org/2000/svg">
<path d="M0 28.9694C0 18.864 8.19209 10.6719 18.2975 10.6719H28.5522V47.267H18.2975C8.19208 47.267 0 39.0749 0 28.9694Z" fill="#9FC031"/>
<circle cx="39.0073" cy="19.519" r="8.84717" fill="#004643"/>
<circle cx="39.0073" cy="38.4194" r="8.84717" fill="#004643"/>
<circle cx="55.4951" cy="16.704" r="6.03216" fill="#004643"/>
<rect x="49.4629" y="23.1387" width="12.0643" height="24.1286" rx="6.03216" fill="#004643"/>
<path d="M85.6494 17.7246C86.9546 17.7246 88.0136 18.7827 88.0137 20.0879V20.5635C90.0792 18.7953 92.7602 17.7246 95.6924 17.7246C95.9003 17.7246 96.1071 17.7296 96.3125 17.7402C96.7017 17.7604 97.0865 17.7995 97.4648 17.8564C98.3627 17.9915 99.2272 18.2285 100.047 18.5537C100.068 18.5614 100.089 18.5687 100.11 18.5771C100.4 18.6939 100.683 18.8234 100.961 18.9619C100.979 18.9707 100.996 18.9794 101.014 18.9883C101.143 19.0536 101.271 19.1215 101.397 19.1914C101.425 19.2068 101.453 19.2227 101.48 19.2383C101.608 19.3098 101.733 19.383 101.857 19.459C101.87 19.4664 101.881 19.474 101.894 19.4814C102.61 19.9241 103.276 20.4416 103.88 21.0225C103.899 21.0405 103.918 21.058 103.937 21.0762C106.141 23.2227 107.511 26.2214 107.511 29.541V44.9033C107.511 46.2085 106.453 47.2666 105.147 47.2666H99.8301C98.525 47.2665 97.4669 46.2084 97.4668 44.9033V33.7285C97.4667 33.7113 97.4648 33.694 97.4648 33.6768V31.2988C97.4648 29.023 95.6195 27.1777 93.3438 27.1777H92.2461C89.9455 27.1777 88.074 29.0128 88.0137 31.2988V44.9033C88.0135 46.2084 86.9546 47.2666 85.6494 47.2666H80.332C79.027 47.2664 77.9689 46.2083 77.9688 44.9033V20.0879C77.9688 18.7828 79.027 17.7248 80.332 17.7246H85.6494Z" fill="#3E4C52"/>
<path fill-rule="evenodd" clip-rule="evenodd" d="M125.827 47.2663C134.311 47.2663 141.188 40.3887 141.188 31.9047C141.188 23.4206 134.311 16.543 125.827 16.543C117.343 16.543 110.465 23.4206 110.465 31.9047C110.465 40.3887 117.343 47.2663 125.827 47.2663ZM131.735 31.6092C131.735 34.7092 129.222 37.2222 126.122 37.2222C123.022 37.2222 120.509 34.7092 120.509 31.6092C120.509 28.5093 123.022 25.9963 126.122 25.9963C129.222 25.9963 131.735 28.5093 131.735 31.6092Z" fill="#3E4C52"/>
<path fill-rule="evenodd" clip-rule="evenodd" d="M158.912 47.2663C167.396 47.2663 174.274 40.3887 174.274 31.9047C174.274 23.4206 167.396 16.543 158.912 16.543C150.428 16.543 143.551 23.4206 143.551 31.9047C143.551 40.3887 150.428 47.2663 158.912 47.2663ZM164.821 31.6092C164.821 34.7092 162.308 37.2222 159.208 37.2222C156.108 37.2222 153.595 34.7092 153.595 31.6092C153.595 28.5093 156.108 25.9963 159.208 25.9963C162.308 25.9963 164.821 28.5093 164.821 31.6092Z" fill="#3E4C52"/>
<ellipse cx="184.614" cy="7.09001" rx="7.38543" ry="7.09001" fill="#004643"/>
<rect x="177.229" y="16.543" width="14.7709" height="30.7234" rx="7.38543" fill="#004643"/>
</svg>
